# xmcd
#
# Track frame offsets: 
#        150
#        18853
#        35764
#        57660
#        79023
#        102286
#        117676
#        136762
#        157723
#        176591
#        202476
#
# Disc length: 2916 seconds
#
# Revision: 0
# Processed by: cddbd v1.5.2PL0 Copyright (c) Steve Scherf et al.
# Submitted via: ExactAudioCopy v0.95b4
#
DISCID=960b620b
DTITLE=The Commonheart - Grown
DYEAR=2016
DGENRE=Rock and Roll
TTITLE0=Who Dat Mama
TTITLE1=Hard Way
TTITLE2=Cannonball
TTITLE3=Hold My Hand
TTITLE4=You Need A Man
TTITLE5=Rivertown
TTITLE6=I'm A Ram
TTITLE7=Aloysius
TTITLE8=Questions
TTITLE9=Save Me
TTITLE10=Spain
EXTD=
EXTT0=
EXTT1=
EXTT2=
EXTT3=
EXTT4=
EXTT5=
EXTT6=
EXTT7=
EXTT8=
EXTT9=
EXTT10=
PLAYORDER=
